<?xml version="1.0" standalone="no"?>
<!DOCTYPE svg PUBLIC "-//W3C//DTD SVG 20010904//EN"
 "http://www.w3.org/TR/2001/REC-SVG-20010904/DTD/svg10.dtd">
<svg version="1.0" xmlns="http://www.w3.org/2000/svg"
 width="1676.000000pt" height="1672.000000pt" viewBox="0 0 1676.000000 1672.000000"
 preserveAspectRatio="xMidYMid meet">

<g transform="translate(0.000000,1672.000000) scale(0.100000,-0.100000)"
fill="#000000" stroke="none">
<path d="M0 8360 l0 -8360 8380 0 8380 0 0 8360 0 8360 -8380 0 -8380 0 0
-8360z m5372 5633 c14 -12 18 -31 18 -78 0 -83 14 -71 -265 -220 -115 -62
-152 -84 -330 -201 -286 -187 -516 -384 -763 -654 -169 -184 -405 -487 -480
-614 -16 -28 -52 -90 -80 -138 -29 -47 -72 -126 -96 -175 -76 -151 -171 -263
-224 -263 -11 0 -33 5 -48 10 -25 10 -26 13 -22 63 3 36 21 86 57 162 113 237
115 239 274 480 227 344 405 559 679 820 253 242 304 287 416 364 123 84 220
145 257 162 11 5 36 19 56 32 62 39 220 128 369 208 35 19 137 58 154 59 5 0
18 -7 28 -17z m3458 -358 c63 -8 133 -16 155 -19 101 -11 145 -19 145 -27 0
-5 -6 -6 -12 -4 -7 2 -67 9 -133 15 -66 5 -192 17 -280 25 -207 20 -478 20
-625 0 -477 -65 -657 -80 -717 -62 -36 10 -30 12 92 24 72 8 254 27 405 43
255 27 296 29 565 25 170 -3 338 -11 405 -20z m-1823 -43 c35 -19 91 -91 107
-140 13 -37 16 -103 17 -356 0 -171 4 -414 8 -541 5 -126 5 -242 0 -258 -35
-122 -170 -190 -271 -137 -60 30 -87 58 -112 110 -20 43 -21 58 -19 330 2 157
-2 399 -7 539 -5 139 -7 272 -3 295 5 32 18 52 58 91 92 88 150 105 222 67z
m3047 -30 c22 -15 49 -40 60 -55 21 -28 21 -38 21 -465 1 -240 5 -507 9 -593
10 -181 4 -207 -52 -262 -82 -80 -184 -74 -269 15 -65 68 -64 50 -59 655 4
611 2 591 74 667 47 49 107 78 147 71 17 -3 48 -18 69 -33z m-2799 8 c-3 -5
-15 -10 -26 -10 -11 0 -17 5 -14 10 3 6 15 10 26 10 11 0 17 -4 14 -10z m1992
4 c-3 -3 -12 -4 -19 -1 -8 3 -5 6 6 6 11 1 17 -2 13 -5z m-2851 -313 c-3 -5
-50 -28 -103 -51 -292 -127 -464 -243 -852 -573 -338 -288 -595 -596 -926
-1112 -72 -111 -219 -413 -294 -601 -133 -334 -190 -544 -255 -929 -37 -221
-46 -350 -46 -647 0 -403 23 -686 81 -1008 17 -91 32 -181 35 -200 6 -48 -34
101 -46 170 -85 510 -82 477 -87 911 -5 420 2 575 37 794 40 248 63 351 117
530 72 240 73 242 155 439 149 361 316 650 570 990 288 384 523 624 807 826
43 30 113 81 157 113 43 32 111 81 149 108 91 66 450 247 493 249 7 0 11 -4 8
-9z m6243 -169 c47 -109 108 -212 240 -412 78 -117 123 -171 241 -291 l145
-148 -65 -29 c-36 -17 -117 -51 -180 -77 -63 -26 -162 -70 -220 -97 -58 -28
-166 -73 -240 -100 -147 -55 -249 -102 -380 -174 -160 -87 -432 -224 -446
-224 -54 0 -2 178 100 343 24 40 60 106 79 147 20 41 58 125 87 185 79 170
210 402 382 675 47 74 97 159 112 187 31 61 86 127 96 116 4 -4 26 -50 49
-101z m-6164 -159 c4 -10 10 -79 12 -153 6 -160 12 -149 -122 -207 -211 -91
-373 -237 -469 -422 -100 -194 -115 -284 -126 -736 -11 -428 -11 -1673 -1
-2630 l8 -710 27 -105 c44 -165 105 -278 226 -413 37 -42 143 -110 252 -161
182 -87 7 -79 1953 -87 1078 -4 1764 -11 1820 -17 110 -13 296 0 408 29 132
33 322 142 382 218 11 14 46 57 78 95 75 90 121 187 158 333 l30 118 6 1715
c3 1183 1 1760 -6 1860 -22 298 -62 418 -197 597 -117 155 -196 224 -339 296
-38 19 -82 48 -97 64 -23 25 -26 36 -26 102 -1 41 -4 98 -8 127 -7 63 -11 61
98 39 216 -45 347 -115 511 -274 85 -82 147 -170 216 -309 77 -155 116 -277
130 -412 16 -151 25 -668 24 -1335 -1 -674 -2 -705 -17 -705 -7 0 -6 -3 2 -8
9 -6 10 -20 3 -55 -5 -31 -5 -47 2 -47 14 0 1 -71 -15 -82 -10 -6 -10 -8 1 -8
10 0 12 -11 9 -45 -3 -25 -2 -48 3 -51 5 -3 6 3 3 13 -5 15 -4 15 4 3 6 -8 7
-20 3 -27 -4 -8 -5 -35 -1 -61 11 -86 -2 -571 -16 -580 -12 -9 -18 -31 -17
-64 0 -16 -4 -28 -10 -28 -6 0 -2 -9 8 -20 16 -18 16 -20 2 -20 -20 0 -22 -11
-4 -29 10 -11 10 -13 0 -7 -8 5 -13 1 -14 -11 -4 -70 -10 -107 -19 -118 -8 -9
-7 -14 2 -18 10 -4 10 -8 -2 -16 -12 -9 -12 -13 -3 -19 9 -6 10 -17 4 -39 -8
-27 -7 -31 7 -26 14 5 14 3 -2 -15 -11 -12 -15 -22 -11 -22 5 0 4 -5 -3 -12
-15 -15 -16 -32 -2 -23 13 8 13 -6 0 -39 -11 -29 -3 -59 13 -49 6 3 7 1 3 -5
-4 -7 -16 -12 -27 -12 -22 0 -21 -18 4 -41 24 -22 21 -38 -5 -31 -15 4 -19 2
-13 -8 4 -7 2 -16 -6 -21 -11 -7 -10 -9 5 -9 18 0 18 -1 2 -19 -9 -10 -16 -22
-15 -27 1 -5 1 -22 0 -38 -1 -25 -3 -27 -18 -15 -15 13 -16 11 -10 -18 4 -18
2 -35 -4 -38 -5 -4 -7 -15 -4 -26 4 -10 -1 -33 -9 -51 -9 -17 -16 -42 -16 -55
0 -18 -5 -23 -26 -23 -22 0 -25 -2 -14 -15 7 -8 17 -12 22 -8 6 3 8 0 6 -8 -3
-8 -11 -13 -18 -11 -9 2 -11 -6 -8 -25 3 -15 2 -41 -2 -58 -7 -28 -8 -29 -15
-7 -4 12 -11 22 -16 22 -18 0 -21 -30 -5 -45 20 -21 20 -29 1 -21 -8 3 -15 1
-15 -3 0 -5 6 -12 13 -14 6 -3 -1 -4 -18 -4 -26 2 -30 -1 -27 -20 2 -16 -2
-23 -13 -23 -10 0 -13 -5 -9 -12 5 -8 2 -9 -9 -5 -12 5 -19 -1 -23 -19 -4 -14
-8 -23 -11 -20 -6 5 -73 -56 -73 -67 0 -4 -12 -19 -27 -32 -16 -13 -28 -34
-28 -47 0 -16 -6 -23 -18 -22 -20 2 -22 -7 -4 -25 10 -11 8 -13 -10 -8 -19 4
-23 1 -23 -19 0 -13 -5 -24 -11 -24 -5 0 -8 -4 -5 -8 7 -11 -48 -52 -69 -52
-9 0 -13 -4 -10 -10 3 -6 -1 -7 -9 -4 -9 3 -16 2 -16 -4 0 -5 -12 -13 -27 -17
-16 -3 -35 -12 -43 -20 -22 -18 -60 -29 -60 -15 0 6 -10 4 -25 -6 -18 -12 -25
-13 -25 -4 0 9 -7 7 -22 -6 -12 -10 -18 -14 -15 -8 5 8 -16 12 -70 13 -42 1
-79 4 -82 9 -7 9 -23 13 -76 19 -22 2 -57 12 -77 20 -30 13 -60 15 -148 10
-97 -5 -113 -8 -143 -31 -19 -14 -45 -26 -58 -27 l-24 0 23 -9 c31 -13 27 -23
-7 -18 -17 2 -29 1 -28 -2 4 -13 -68 -72 -89 -74 -12 0 -20 -5 -16 -10 3 -5
-2 -7 -11 -3 -8 3 -20 0 -26 -7 -6 -7 -26 -11 -45 -10 -20 2 -38 -2 -42 -8 -5
-7 -2 -8 7 -3 8 5 11 4 6 -1 -12 -12 -30 -12 -39 0 -13 20 -22 -5 -9 -26 7
-11 8 -17 2 -13 -6 3 -11 2 -11 -3 0 -5 -29 -10 -65 -10 -43 0 -65 3 -65 11 0
9 -2 9 -8 0 -5 -9 -93 -14 -307 -20 -326 -9 -2465 -6 -2555 3 -135 14 -441
102 -501 145 -15 10 -37 23 -50 28 -45 17 -184 128 -256 204 -152 160 -273
430 -304 680 -17 133 -25 3588 -9 3744 19 192 86 398 182 568 63 112 115 180
209 273 136 135 379 260 566 292 26 4 51 8 54 9 4 0 10 -7 14 -16z m3023 -143
c2 -114 -1 -150 -12 -165 -14 -20 -32 -20 -1008 -23 -789 -2 -997 0 -1010 10
-15 12 -16 30 -11 165 l6 152 91 3 c50 2 507 3 1016 3 l925 0 3 -145z m-491
-740 c37 -22 64 -93 55 -148 -7 -51 -90 -123 -125 -109 -19 7 -68 111 -74 158
-7 47 9 74 55 98 46 25 50 25 89 1z m-931 -5 c31 -21 54 -76 54 -128 0 -39 -5
-49 -35 -76 -40 -35 -81 -48 -104 -34 -46 27 -69 137 -42 201 21 50 84 68 127
37z m449 0 c22 -8 39 -25 46 -42 26 -68 -36 -193 -95 -193 -56 0 -124 100
-111 161 8 36 68 89 101 89 13 0 40 -7 59 -15z m108 -850 c74 -37 152 -112
180 -172 19 -42 21 -66 22 -198 0 -166 -3 -178 -73 -264 -67 -82 -144 -95
-412 -70 -132 12 -164 24 -219 84 -72 78 -84 114 -89 256 -5 149 7 186 85 270
97 105 163 129 333 126 104 -3 120 -6 173 -32z m971 7 c102 -46 182 -136 212
-238 8 -28 15 -96 16 -150 1 -104 -5 -126 -56 -199 -72 -105 -99 -118 -255
-123 -196 -7 -277 19 -365 120 -56 64 -70 116 -70 258 -1 92 2 111 23 150 52
98 144 179 228 200 67 16 212 7 267 -18z m-6528 -53 c23 -19 12 -150 -26 -314
-55 -238 -78 -491 -87 -930 -4 -268 -2 -365 12 -520 17 -194 50 -418 85 -580
45 -210 158 -587 225 -750 53 -129 127 -325 147 -390 22 -73 23 -101 3 -109
-8 -3 -12 -12 -9 -19 8 -22 -36 -29 -65 -10 -42 27 -112 96 -126 124 -31 58
-146 378 -210 579 -19 58 -45 137 -60 175 -43 115 -132 523 -170 775 -63 424
-29 1243 73 1792 25 133 38 160 81 174 46 15 111 16 127 3z m8923 -229 c42
-74 51 -94 122 -280 125 -327 152 -426 179 -669 5 -42 16 -123 24 -181 10 -74
14 -205 15 -440 0 -354 1 -347 -60 -720 -34 -210 -88 -438 -109 -465 -4 -5
-17 -37 -29 -70 -66 -193 -99 -276 -167 -415 -101 -210 -110 -225 -165 -301
-27 -37 -49 -70 -49 -73 0 -12 -91 -150 -119 -179 -14 -15 -52 -66 -86 -112
-117 -163 -175 -231 -306 -360 -73 -71 -158 -156 -188 -189 -31 -32 -85 -79
-121 -104 -36 -25 -78 -56 -93 -69 -29 -24 -57 -30 -57 -14 0 5 58 59 129 120
274 234 462 433 664 705 84 114 187 267 187 279 0 5 25 45 55 89 30 44 55 82
55 84 0 5 25 59 120 264 73 155 95 222 186 555 44 162 68 288 100 525 31 233
36 605 10 815 -9 72 -21 173 -26 225 -19 189 -52 357 -90 444 -9 23 -38 104
-65 181 -26 77 -78 205 -115 285 -37 80 -70 154 -74 165 -10 33 30 -19 73 -95z
m-4923 14 c-4 -9 -9 -15 -11 -12 -3 3 -3 13 1 22 4 9 9 15 11 12 3 -3 3 -13
-1 -22z m-11 -64 c-3 -57 -15 -63 -15 -7 0 26 4 47 9 47 4 0 7 -18 6 -40z
m-499 -648 c86 -44 162 -111 189 -167 48 -97 57 -287 20 -396 -22 -64 -113
-163 -169 -184 -36 -14 -71 -16 -183 -13 l-138 3 -73 39 c-131 70 -180 157
-189 336 -7 125 9 195 60 262 55 71 139 116 267 142 54 10 177 -2 216 -22z
m4109 -19 c93 -55 151 -114 188 -191 28 -61 29 -67 25 -170 -7 -137 -31 -206
-102 -280 -28 -30 -71 -66 -96 -80 -43 -26 -52 -27 -185 -27 -132 0 -143 2
-199 28 -89 41 -141 88 -175 160 -75 153 -65 331 26 461 36 51 85 87 170 122
52 22 70 24 168 22 109 -3 111 -4 180 -45z m3337 27 c20 -6 39 -18 43 -28 4
-9 13 -97 20 -194 10 -149 16 -182 34 -211 12 -19 31 -37 44 -41 12 -3 98 -6
190 -6 150 0 168 -2 175 -17 12 -30 7 -162 -6 -175 -9 -9 -70 -14 -207 -18
-125 -3 -198 -9 -205 -16 -7 -7 -15 -74 -20 -164 -4 -83 -11 -155 -16 -159
-14 -13 -75 -31 -103 -31 -58 1 -81 43 -81 147 -1 70 -20 206 -31 218 -3 2
-83 6 -179 9 -151 5 -177 8 -193 24 -24 24 -33 118 -15 152 13 25 17 25 173
33 176 8 181 10 217 82 17 32 22 67 27 203 6 156 8 165 30 183 26 21 50 23
103 9z m-9284 -627 c100 -50 163 -148 148 -228 -10 -51 -129 -185 -190 -214
-94 -43 -151 -25 -261 86 -84 85 -101 122 -86 181 13 46 68 121 112 153 77 55
194 64 277 22z m3795 -383 c102 -15 159 -44 222 -111 71 -77 80 -110 80 -284
0 -132 -2 -143 -27 -195 -30 -62 -92 -131 -141 -157 -24 -13 -63 -18 -157 -21
-201 -6 -296 21 -373 108 -72 81 -82 114 -82 285 0 127 3 155 19 184 27 50
104 129 153 158 67 39 180 51 306 33z m2889 -365 c-2 -14 -9 -25 -14 -25 -6 0
-7 7 -4 16 3 9 6 20 6 25 0 5 4 9 9 9 4 0 6 -11 3 -25z m-62 -559 c0 -3 -4 -8
-10 -11 -5 -3 -10 -1 -10 4 0 6 5 11 10 11 6 0 10 -2 10 -4z m-6695 -460 c16
-16 22 -31 18 -45 -3 -12 -59 -65 -124 -117 -66 -52 -119 -100 -119 -105 0 -6
-105 -115 -232 -243 -128 -127 -259 -262 -292 -299 -32 -37 -64 -67 -72 -67
-7 0 -11 -6 -8 -13 3 -8 -3 -20 -12 -28 -16 -12 -17 -12 -11 4 7 19 6 20 -17
11 -9 -3 -16 -12 -16 -20 0 -8 -9 -14 -20 -14 -12 0 -20 -7 -20 -17 0 -9 -11
-31 -25 -49 -14 -18 -25 -38 -25 -44 0 -6 -7 -21 -16 -35 -12 -18 -13 -28 -5
-44 10 -18 2 -31 -66 -104 -43 -45 -108 -115 -144 -155 -36 -40 -70 -72 -76
-72 -5 0 -15 17 -21 38 -17 57 -154 263 -239 361 -41 47 -100 104 -131 126
-76 54 -226 201 -218 214 4 6 23 13 44 17 35 6 126 38 557 194 105 38 280 101
390 141 195 69 453 190 605 283 136 84 184 106 228 106 32 0 49 -6 67 -24z
m4988 -823 c-7 -2 -21 -2 -30 0 -10 3 -4 5 12 5 17 0 24 -2 18 -5z m515 -134
c35 -12 37 -20 51 -189 14 -162 27 -219 54 -225 12 -3 84 -9 160 -14 76 -5
139 -10 141 -12 2 -2 6 -40 7 -84 l4 -80 -160 -6 c-88 -3 -161 -7 -162 -7 -2
-1 -10 -13 -19 -27 -12 -19 -18 -66 -24 -202 -6 -132 -13 -190 -26 -226 l-19
-48 -49 3 c-50 3 -50 3 -63 48 -7 25 -16 119 -19 210 -6 192 -18 234 -66 244
-17 3 -94 6 -172 6 -97 0 -146 4 -154 12 -7 7 -12 42 -12 85 l0 73 174 0 c133
0 176 3 185 13 29 36 43 107 48 255 4 114 10 157 20 168 17 17 58 18 101 3z
m-6276 -182 c29 -29 81 -86 115 -128 60 -71 157 -168 304 -304 152 -140 169
-158 169 -175 0 -29 -45 -76 -96 -99 l-46 -22 -41 28 c-56 39 -328 330 -428
460 -113 145 -139 184 -131 199 16 29 78 94 89 94 7 0 36 -24 65 -53z m3203
-67 c44 -17 163 -71 265 -120 259 -124 496 -205 685 -235 177 -28 453 -48 690
-49 251 -1 341 4 490 29 141 23 147 22 168 -26 40 -93 33 -125 -36 -157 -111
-52 -418 -78 -807 -69 -260 7 -350 15 -550 53 -170 32 -238 52 -408 120 -75
30 -140 54 -145 54 -12 0 -191 91 -292 148 -97 54 -154 98 -164 125 -9 24 9
157 21 157 2 0 39 -14 83 -30z m-701 -539 c-2 -3 -12 3 -22 13 -16 17 -16 18
5 5 12 -7 20 -15 17 -18z m146 -76 c0 -3 -18 4 -40 15 -22 11 -40 23 -40 25 0
3 18 -4 40 -15 22 -11 40 -23 40 -25z m138 -64 c53 -27 144 -67 202 -90 58
-22 155 -61 215 -86 150 -64 225 -87 477 -151 430 -108 513 -119 898 -118 288
0 506 16 659 49 194 41 463 109 591 150 141 44 197 55 185 35 -8 -12 -436
-153 -545 -178 -83 -20 -194 -38 -395 -64 -65 -8 -216 -13 -430 -13 -287 0
-353 3 -505 23 -360 48 -720 143 -1005 267 -66 29 -131 56 -145 60 -42 13
-264 123 -290 144 -39 32 -17 25 88 -28z m4497 -1694 c104 -53 158 -139 164
-260 4 -105 -14 -152 -93 -231 -51 -52 -72 -66 -127 -84 -55 -17 -73 -19 -105
-10 -106 29 -182 95 -234 203 -30 63 -25 167 13 240 30 59 101 128 160 156 58
27 154 21 222 -14z m1349 -454 l4 -183 -113 0 c-128 0 -212 -20 -270 -65 -53
-39 -68 -78 -69 -170 l-1 -80 141 -9 142 -9 5 -71 c3 -39 11 -113 17 -165 6
-51 8 -97 3 -102 -5 -5 -77 -4 -162 2 -84 5 -155 8 -158 5 -3 -2 -1 -227 4
-498 5 -271 9 -554 9 -628 l-1 -135 -198 0 -198 0 1 389 c0 214 2 392 5 396 2
4 5 110 5 236 l1 229 -83 1 c-46 1 -88 2 -94 3 -7 0 -16 42 -23 99 -7 53 -17
128 -22 165 -5 38 -7 72 -5 76 3 4 56 5 118 3 l113 -4 0 118 c0 117 1 121 37
197 62 130 219 268 383 336 95 40 154 49 292 47 l113 -1 4 -182z m-2334 -268
l5 -240 200 0 200 0 6 -160 c5 -112 3 -164 -5 -172 -8 -9 -55 -10 -200 -2
-104 5 -192 7 -195 3 -3 -3 -6 -173 -5 -377 1 -335 3 -376 19 -407 23 -45 53
-78 89 -97 39 -20 167 -28 240 -14 33 6 61 9 63 7 2 -2 9 -88 15 -191 9 -157
9 -188 -3 -196 -19 -12 -249 -11 -329 1 -185 29 -355 183 -439 398 l-26 67 -2
390 -3 390 -122 5 -123 5 -12 135 c-6 74 -12 151 -12 171 l-1 37 125 7 125 7
0 219 c0 218 0 219 23 229 19 8 290 29 342 26 19 -1 20 -10 25 -241z m-6391
-206 c136 -22 341 -135 435 -240 77 -86 163 -223 186 -297 35 -111 62 -378 42
-408 -5 -8 -173 -13 -572 -18 -311 -4 -580 -10 -598 -13 -19 -3 -36 -12 -39
-19 -13 -34 89 -173 164 -225 23 -16 77 -43 120 -61 71 -29 88 -32 183 -32 92
0 114 3 172 28 107 43 153 73 208 132 l50 56 11 -29 c14 -37 49 -73 142 -145
42 -33 77 -66 77 -73 0 -6 -46 -49 -102 -95 -105 -85 -241 -159 -358 -195 -85
-26 -238 -31 -344 -11 -181 35 -334 113 -451 230 -66 66 -92 104 -147 206 -88
164 -108 241 -109 415 0 152 18 253 61 341 44 90 159 240 216 280 126 90 303
167 409 177 84 8 182 6 244 -4z m3325 -16 c154 -38 319 -152 426 -295 77 -101
104 -155 135 -265 21 -78 54 -368 42 -380 -2 -2 -262 -4 -578 -4 -316 0 -591
-3 -611 -6 -35 -4 -37 -7 -32 -31 15 -59 65 -141 111 -181 26 -22 91 -60 143
-83 86 -38 104 -42 192 -46 108 -5 185 13 304 69 57 27 115 78 126 110 2 7 30
-13 69 -52 35 -36 99 -87 142 -113 64 -40 76 -51 65 -61 -53 -51 -258 -194
-323 -226 -203 -100 -419 -105 -665 -17 -152 55 -217 93 -302 179 -67 68 -86
96 -132 192 -65 134 -92 227 -107 364 -8 75 -8 121 1 175 14 91 60 232 99 301
70 123 201 239 359 317 149 73 369 95 536 53z m-940 9 c3 -5 -6 -26 -21 -46
-14 -21 -60 -113 -103 -205 -43 -91 -124 -263 -180 -381 -123 -258 -142 -299
-259 -550 -91 -194 -197 -368 -254 -416 -18 -15 -41 -24 -62 -24 -18 0 -46 -3
-62 -6 -28 -6 -30 -3 -73 88 -24 51 -59 117 -77 145 -44 70 -229 441 -258 517
-45 120 -202 450 -352 739 -31 61 -52 112 -47 117 5 4 99 5 208 1 l199 -6 44
-100 c24 -55 71 -167 104 -250 33 -82 73 -181 90 -220 17 -38 50 -117 73 -175
74 -182 128 -300 140 -300 14 0 81 139 131 270 65 173 97 254 120 310 13 30
34 82 46 115 13 33 44 96 70 140 25 44 59 108 74 143 15 34 28 62 29 62 0 1
53 3 116 7 91 5 222 19 292 32 4 0 9 -3 12 -7z m2747 -8 c162 -48 298 -162
387 -325 81 -148 81 -153 89 -757 5 -445 4 -525 -8 -533 -17 -10 -369 -12
-385 -1 -9 5 -9 75 -2 272 5 146 8 375 6 510 -3 223 -6 250 -25 299 -42 102
-97 157 -188 183 -60 18 -181 15 -243 -6 -71 -24 -166 -97 -200 -154 l-27 -47
0 -385 c0 -212 -1 -449 -2 -527 l-3 -143 -195 0 -195 0 2 798 3 797 180 5 c99
3 183 3 187 0 4 -3 0 -39 -8 -80 -8 -41 -14 -76 -14 -77 0 -10 31 0 37 11 19
33 206 135 283 154 75 19 82 20 176 21 57 1 111 -5 145 -15z m2310 -604 c4
-338 7 -701 8 -807 2 -106 0 -196 -2 -200 -3 -4 -22 -8 -44 -7 -21 0 -107 1
-190 2 l-153 2 0 808 0 808 127 3 c70 1 130 5 132 7 3 3 30 4 61 2 l55 -3 6
-615z m2919 598 c-1 -49 -109 -376 -170 -513 -33 -76 -99 -230 -140 -330 -22
-55 -47 -113 -55 -130 -51 -110 -90 -199 -112 -260 -14 -38 -56 -129 -93 -201
-37 -72 -86 -181 -108 -241 -60 -163 -181 -397 -250 -485 -87 -109 -240 -220
-356 -258 -60 -19 -300 -59 -309 -51 -8 8 71 270 105 350 25 60 49 84 122 125
34 19 80 50 102 70 39 34 162 208 222 316 l27 49 -26 28 c-84 89 -246 372
-324 561 -35 86 -87 211 -115 277 -52 121 -168 430 -210 560 -12 39 -29 82
-37 98 l-14 27 222 -2 222 -3 43 -169 c69 -268 100 -357 201 -576 157 -340
185 -389 209 -369 8 6 14 17 14 24 0 7 17 45 38 86 20 41 45 94 56 119 10 25
43 101 73 170 31 69 71 174 90 234 19 60 57 154 86 210 28 55 63 137 77 181
31 94 22 89 215 103 185 13 195 13 195 0z"/>
<path d="M12500 12175 c-14 -8 -20 -14 -14 -15 5 0 19 7 30 15 24 18 16 19
-16 0z"/>
<path d="M12480 12139 c0 -5 5 -7 10 -4 6 3 10 8 10 11 0 2 -4 4 -10 4 -5 0
-10 -5 -10 -11z"/>
<path d="M9508 7033 c7 -3 16 -2 19 1 4 3 -2 6 -13 5 -11 0 -14 -3 -6 -6z"/>
<path d="M3582 2998 c-34 -4 -86 -18 -115 -31 -75 -34 -170 -126 -207 -199
-34 -70 -37 -95 -12 -102 9 -2 204 -6 432 -8 l415 -3 3 29 c9 74 -67 177 -186
254 -91 59 -187 76 -330 60z"/>
<path d="M6768 2981 c-69 -22 -148 -71 -184 -114 -23 -27 -108 -197 -102 -202
2 -2 196 -4 433 -6 489 -5 451 -12 420 85 -31 98 -136 196 -253 235 -81 28
-231 28 -314 2z"/>
</g>
</svg>
